<svg width="32" height="32" viewBox="0 0 32 32" fill="none" xmlns="http://www.w3.org/2000/svg">
<path d="M23.1113 28H8.88867V22H8C3.58172 22 3.22139e-08 18.4183 0 14V11C3.22139e-08 6.58172 3.58172 3 8 3H24C28.4183 3 32 6.58172 32 11V14C32 18.4183 28.4183 22 24 22H23.1113V28Z" fill="#EEF0E1"/>
<path d="M7.24134 18V6.36364H11.8323C12.711 6.36364 13.461 6.52083 14.0823 6.83523C14.7073 7.14583 15.1826 7.58712 15.5084 8.15909C15.8379 8.72727 16.0027 9.39583 16.0027 10.1648C16.0027 10.9375 15.836 11.6023 15.5027 12.1591C15.1694 12.7121 14.6864 13.1364 14.0538 13.4318C13.4251 13.7273 12.6637 13.875 11.7698 13.875H8.69589V11.8977H11.372C11.8417 11.8977 12.2319 11.8333 12.5425 11.7045C12.8531 11.5758 13.0841 11.3826 13.2357 11.125C13.391 10.8674 13.4686 10.5473 13.4686 10.1648C13.4686 9.77841 13.391 9.45265 13.2357 9.1875C13.0841 8.92235 12.8512 8.72159 12.5368 8.58523C12.2262 8.44508 11.8341 8.375 11.3607 8.375H9.70157V18H7.24134ZM13.5254 12.7045L16.4175 18H13.7016L10.872 12.7045H13.5254ZM24.0538 9.71023C24.0084 9.25189 23.8133 8.89583 23.4686 8.64205C23.1239 8.38826 22.6561 8.26136 22.0652 8.26136C21.6637 8.26136 21.3247 8.31818 21.0482 8.43182C20.7716 8.54167 20.5595 8.69508 20.4118 8.89205C20.2679 9.08902 20.1959 9.3125 20.1959 9.5625C20.1883 9.77083 20.2319 9.95265 20.3266 10.108C20.4251 10.2633 20.5595 10.3977 20.73 10.5114C20.9004 10.6212 21.0974 10.7178 21.3209 10.8011C21.5444 10.8807 21.783 10.9489 22.0368 11.0057L23.0823 11.2557C23.5898 11.3693 24.0557 11.5208 24.48 11.7102C24.9042 11.8996 25.2716 12.1326 25.5823 12.4091C25.8929 12.6856 26.1334 13.0114 26.3038 13.3864C26.4781 13.7614 26.5671 14.1913 26.5709 14.6761C26.5671 15.3883 26.3853 16.0057 26.0254 16.5284C25.6694 17.0473 25.1542 17.4508 24.48 17.7386C23.8095 18.0227 23.0008 18.1648 22.0538 18.1648C21.1145 18.1648 20.2963 18.0208 19.5993 17.733C18.9061 17.4451 18.3645 17.0189 17.9743 16.4545C17.5879 15.8864 17.3853 15.1837 17.3663 14.3466H19.747C19.7735 14.7367 19.8853 15.0625 20.0823 15.3239C20.283 15.5814 20.5501 15.7765 20.8834 15.9091C21.2205 16.0379 21.6012 16.1023 22.0254 16.1023C22.4421 16.1023 22.8038 16.0417 23.1107 15.9205C23.4213 15.7992 23.6618 15.6307 23.8323 15.4148C24.0027 15.1989 24.0879 14.9508 24.0879 14.6705C24.0879 14.4091 24.0103 14.1894 23.855 14.0114C23.7035 13.8333 23.48 13.6818 23.1845 13.5568C22.8929 13.4318 22.5349 13.3182 22.1107 13.2159L20.8436 12.8977C19.8626 12.6591 19.0879 12.286 18.5198 11.7784C17.9516 11.2708 17.6694 10.5871 17.6732 9.72727C17.6694 9.02273 17.8569 8.4072 18.2357 7.88068C18.6182 7.35417 19.1429 6.94318 19.8095 6.64773C20.4762 6.35227 21.2338 6.20455 22.0823 6.20455C22.9459 6.20455 23.6997 6.35227 24.3436 6.64773C24.9913 6.94318 25.4951 7.35417 25.855 7.88068C26.2148 8.4072 26.4004 9.01705 26.4118 9.71023H24.0538Z" fill="#526772"/>
</svg>
